# xmcd
#
# Track frame offsets: 
#        187
#        24355
#        50257
#        75230
#        96450
#        122185
#        137205
#        152950
#        172085
#        188555
#        208397
#        227885
#
# Disc length: 3273 seconds
#
# Revision: 2
# Processed by: cddbd v1.5.2PL0 Copyright (c) Steve Scherf et al.
# Submitted via: ExactAudioCopy v1.0b3
#
DISCID=a40cc70c
DTITLE=ARB - The Hard And Soft
DYEAR=1981
DGENRE=Soul
TTITLE0=New Jac City
TTITLE1=All Or Nothing
TTITLE2=Crank It Up
TTITLE3=Night Life
TTITLE4=Just Music
TTITLE5=It's A Woman's Thang
TTITLE6=Jac To This
TTITLE7=Make You Sweat
TTITLE8=Somebody Workit
TTITLE9=Cuttin' Like Jason
TTITLE10=Bump N Grind
TTITLE11=X Marks The Spot
EXTD=
EXTT0=
EXTT1=
EXTT2=
EXTT3=
EXTT4=
EXTT5=
EXTT6=
EXTT7=
EXTT8=
EXTT9=
EXTT10=
EXTT11=
PLAYORDER=
